<svg xmlns="http://www.w3.org/2000/svg" viewBox="0 0 23.92 20.04"><defs><style>.cls-1,.cls-3{fill:none;stroke:#453e56;stroke-width:1.1px}.cls-1{stroke-miterlimit:10}.cls-2{fill:#453e56}.cls-3{stroke-linecap:round;stroke-linejoin:round}</style></defs><title>Token_1</title><g id="Layer_2" data-name="Layer 2"><g id="Layer_2-2" data-name="Layer 2"><circle cx="10.02" cy="10.02" r="9.47" class="cls-1"/><path d="M10,19.49H13.9A9.47,9.47,0,1,0,13.9.55H10" class="cls-1"/><path d="M15.22,14.33,13.69,7.24h0l0-.27L13,6.13,10,2.52,6.4,7,4.82,14.33l5.23,3,.63-.39h0ZM13,9.31l1,4.46-3,1.7L12.12,12ZM10,4.26l2.49,3.07-1.07,3.24L10,14.89l-.74-2.23L7.53,7.33h0ZM7,9.31l2,6.16-3-1.7Z" class="cls-2"/><polygon points="5.52 13.77 14.53 13.77 10.02 6.54 5.52 13.77" class="cls-3"/><line x1="10.02" x2="10.02" y1="6.54" y2="3.63" class="cls-3"/><line x1="18.94" x2="22.82" y1="6.86" y2="6.86" class="cls-3"/><line x1="18.04" x2="21.87" y1="15.05" y2="15.05" class="cls-3"/></g></g></svg>